<?xml version="1.0" encoding="UTF-8"?>
<svg id="Layer_1" data-name="Layer 1" xmlns="http://www.w3.org/2000/svg" xmlns:xlink="http://www.w3.org/1999/xlink" viewBox="0 0 319.7 108.79">
  <defs>
    <style>
      .cls-1 {
        fill: #fef5a5;
      }

      .cls-2 {
        filter: url(#drop-shadow-18);
      }

      .cls-3 {
        fill-rule: evenodd;
      }

      .cls-3, .cls-4 {
        fill: #38bcab;
      }
    </style>
    <filter id="drop-shadow-18" x="7.72" y="13.35" width="299.33" height="88.55" filterUnits="userSpaceOnUse">
      <feOffset dx="5" dy="4"/>
      <feGaussianBlur result="blur" stdDeviation="0"/>
      <feFlood flood-color="#000" flood-opacity=".21"/>
      <feComposite in2="blur" operator="in"/>
      <feComposite in="SourceGraphic"/>
    </filter>
  </defs>
  <g class="cls-2">
    <path class="cls-3" d="M49.99,97.9c-23.31,0-42.27-18.96-42.27-42.27S26.68,13.35,49.99,13.35h209.78c23.31,0,42.27,18.96,42.27,42.27s-18.96,42.27-42.27,42.27H49.99Z"/>
    <rect class="cls-1" x="17.72" y="22.96" width="274.33" height="64.55" rx="32.27" ry="32.27"/>
    <g>
      <path class="cls-4" d="M112.32,68.45c-3.38,0-3.35-.86-3.35-2.53,0-.68.1-1.3.17-2.02,0-.03-.03-.1-.03-.14,0,0,.03-3.42,1.16-3.42.1,0,.2.03.3.07,1.19.44,2.29.48,3.41.82.5.17,1.49.21,2.32.48.66,0,1.56-.31,1.56-1.09,0-.27-.2-.55-.43-.75,0,0-1.92-1.61-3.08-1.61-1.92-.72-3.12-.89-4.37-2.19-.53-.55-1.03-.27-1.66-2.67-.36-.58-.4-1.33-.53-2.09,0-.96.27-1.85.6-2.7,0,0,1.03-2.16,1.56-2.43.6-1.03,1.26-.92,1.82-1.51.36-.38,1.23-.55,1.79-.75.13-.03,1.49-.58,2.72-.58.17,0,.36.07.56.07-.1.03-.2.03-.23.03,1.03.14,1.79.24,2.68.38.53.21,1.26.79,2.15.99,0,0,1.13.41,1.13,1.88-.1.65-.17,1.3-.23,2.02-.03.31-.1,2.77-1.33,2.77-.96,0-1.69-.27-2.49-.48-.27-.07-1.13-.41-1.52-.41-.23,0-.46.03-.73.03-.2,0-1.66-.1-1.66.92,0,.34.56.79.76.96.7.96,2.85,1.3,4.11,2.05.43.27,1.76.79,2.52,1.51.89.86,2.55,3.15,2.55,5.78,0,.38-.13,1.16-.3,1.61-.36,2.29-1.96,3.66-4.08,4.21-.99,0-1.59.44-2.45.44-.76,0-1.86.27-2.72.27-.46,0-.9-.03-1.36-.07-.3,0-.63.1-.93.1-.13,0-.27.03-.4.03ZM124.22,61.92s.03-.1-.03-.1c0,.03.03.07.03.1Z"/>
      <path class="cls-4" d="M131.25,67.73c-.86-.17-1.03-.82-1.03-2.6,0-4.17.36-6.53.36-9.82v-.65c-.6-3.59.23-3.69-3.21-3.69-.63,0-.96.21-1.82.21-.36,0-1.13-.21-1.13-.48v-2.81c0-.58-.17-.99-.17-1.78,0-.38-.03-1.06.53-1.06.46,0,.73.21,1.16.21.17,0,.36-.03.53-.03.4,0,1.52.17,2.62.17.56,0,1.42-.1,2.19-.1.6,0,1.06.1,1.56.1.36,0,.8-.07,1.06-.07,1.26,0,2.58.17,3.84.17,1.33,0,2.92,0,4.47-.24.3,0,.86-.1.86.44,0,.62-.1,1.37-.17,1.98,0,.27.03.62.03.85,0,3.01-.03,3.04-2.02,3.04-.36,0-.56-.1-.86-.1-.4,0-.8.14-1.19.14-.43,0-.7-.14-1.13-.14-.07,0-.36.24-.36.58,0,1.3.03,2.6.03,3.87,0,2.94-.33,6.29-.33,9.27,0,2.16-.1,2.33-1.29,2.33-.3,0-.53-.07-.76-.07-1.16,0-2.25.03-3.31.24-.13.03-.3.03-.46.03Z"/>
      <path class="cls-4" d="M155.58,69.48c-.5,0-.7-.41-.7-.89-.27-1.09-.46-2.16-.66-3.22-.03-.07-.43-3.46-1.03-3.46-.3,0-.63.07-.93.07-.2,0-.4-.07-.6-.07-.8,0-1.52.34-2.19.34-.93,0-.96,2.02-1.06,2.77-.1.65-.43,1.33-.6,2.7-.43.89-1.86.86-2.85.86s-3.12.48-3.12-1.13c0-1.13.53-3.08.53-4.65.2-3.97,1.26-6.84,1.99-9.85.2-.85.73-2.33.83-3.39.33-1.71,1.03-3.73,1.62-5.51,0-1.3.4-1.95,1.66-1.95h4.51c.63,0,1.42.14,2.09.41.73.31.43,2.16,1.62,5.51.6,1.23.66,3.22,1.09,4.86.36,1.06.23,2.05.76,3.08.4.82.5,1.64,1.42,5.58.46,1.98.86,2.87,1.06,4.41.13.62.33,1.2.33,1.81,0,.38.03,1.61-.2,1.61-.27,0-.76.03-.99-.07-.99,0-2.06.14-2.82.14-.33,0-.7-.07-1.03-.07-.23,0-.5.03-.73.07l-.03.03ZM152.73,54.63c0-.82-.3-1.61-.3-2.33-.03-.41-.23-2.91-.9-2.91-.43,0-.5,1.16-.6,1.74-.13.75-1.09,3.39-1.09,5.41,0,.55.3.38.73.51,2.22,0,2.15-.44,2.15-2.43Z"/>
      <path class="cls-4" d="M178.21,69.37c-1.26-.65-1.29-1.4-3.12-3.87-.5-.65-1.06-2.5-1.86-3.32-.7-.68-.99-1.16-1.49-2.09.27,0-.63-.31-1.72-.31-.2,0-.23.17-.23.44,0,1.06.2,2.29.2,3.46,0,.89,0,1.2.13,2.12,0,.82-.36,1.2-1.66,1.2-.4-.03-.89-.14-1.26-.14-.89,0-1.86.31-2.42.31h-.99c-.2,0-.36,0-.56.03-.13,0-.3-.03-.3-.17v-.03c0-.62-.1-1.3-.1-1.92,0-1.64.3-3.04.3-4.62,0-.51-.1-1.09-.17-1.61,0-1.2,0-2.29.1-3.46,0-.07-.03-.34-.03-.41,0-.21.03-.44.07-.68,0-.44-.03-.92-.03-1.4,0-.79.07-1.57.07-2.39,0-.55-.13-1.09-.13-1.64,0-.14,0-.24.03-.38-.1-.48-.13-.89-.13-1.4,0-.58.07-1.3.3-1.78.83-.86,1.29-1.06,2.29-1.06.46,0,.99.03,1.49.1.63-.07,1.33-.1,1.92-.1h.2c.93,0,1.82-.17,2.75-.17.13,0,.27.03.4.03.46,0,.9-.1,1.36-.1.8.1,1.59.27,2.39.27.13,0,.27-.07.53-.07,2.05.14,2.75.48,4.41,2.02,1.69,1.74,1.86,4.82,1.86,6.53,0,.31-.07.75-.13.92-.33,1.33-1.33,2.74-2.22,3.66-.3.27-1.33.79-1.33,1.09l.03.03c.43.75,1.06,2.05,1.46,3.01.63,1.13,1.89,2.87,2.55,4.58,0,.14.23.48-1.43,1.3-1.39.27-2.09,1.4-3.25,1.98h-.27ZM172.45,54.6h.33c.46,0,1.13,0,1.89-.41.27-.07,1.06-.41,1.06-1.95-.3-2.33-1.79-2.26-2.82-2.43-2.32.24-2.85.07-2.85,1.47,0,.34.07.75.07,1.09,0,.07-.03.14-.03.21v1.33c0,.72.8.62,1.56.72.27,0,.56-.03.8-.03Z"/>
      <path class="cls-4" d="M190.61,67.73c-.86-.17-1.03-.82-1.03-2.6,0-4.17.36-6.53.36-9.82v-.65c-.6-3.59.23-3.69-3.21-3.69-.63,0-.96.21-1.82.21-.36,0-1.13-.21-1.13-.48v-2.81c0-.58-.17-.99-.17-1.78,0-.38-.03-1.06.53-1.06.46,0,.73.21,1.16.21.17,0,.36-.03.53-.03.4,0,1.52.17,2.62.17.56,0,1.42-.1,2.19-.1.6,0,1.06.1,1.56.1.36,0,.8-.07,1.06-.07,1.26,0,2.58.17,3.84.17,1.33,0,2.92,0,4.47-.24.3,0,.86-.1.86.44,0,.62-.1,1.37-.17,1.98,0,.27.03.62.03.85,0,3.01-.03,3.04-2.02,3.04-.36,0-.56-.1-.86-.1-.4,0-.8.14-1.19.14-.43,0-.7-.14-1.13-.14-.07,0-.36.24-.36.58,0,1.3.03,2.6.03,3.87,0,2.94-.33,6.29-.33,9.27,0,2.16-.1,2.33-1.29,2.33-.3,0-.53-.07-.76-.07-1.16,0-2.25.03-3.31.24-.13.03-.3.03-.46.03Z"/>
    </g>
  </g>
</svg>