<?xml version="1.0" encoding="UTF-8"?>
<svg id="Layer_1" data-name="Layer 1" xmlns="http://www.w3.org/2000/svg" xmlns:xlink="http://www.w3.org/1999/xlink" viewBox="0 0 134.43 152.12">
  <defs>
    <style>
      .cls-1, .cls-2, .cls-3, .cls-4 {
        fill: none;
      }

      .cls-5 {
        fill: #281e11;
      }

      .cls-6 {
        fill: url(#_ГӮГҒ_ГҸ_ГҢГҢ_ГҲ_ГӢГӮГҢГҡ_303);
      }

      .cls-7 {
        fill: #eb6430;
      }

      .cls-8 {
        fill: url(#_ГӮГҒ_ГҸ_ГҢГҢ_ГҲ_ГӢГӮГҢГҡ_303-2);
      }

      .cls-9 {
        fill: url(#_ГӮГҒ_ГҸ_ГҢГҢ_ГҲ_ГӢГӮГҢГҡ_303-3);
      }

      .cls-2 {
        stroke: #020202;
      }

      .cls-2, .cls-3, .cls-4 {
        stroke-linecap: round;
        stroke-linejoin: round;
      }

      .cls-2, .cls-4 {
        stroke-width: 1.89px;
      }

      .cls-10 {
        fill: #ee9e59;
      }

      .cls-11 {
        fill: #d9562e;
      }

      .cls-12 {
        fill: #502d14;
      }

      .cls-13 {
        fill: #f9f5e4;
      }

      .cls-3 {
        stroke: #3a3931;
        stroke-width: 2px;
      }

      .cls-14 {
        fill: #ec3a33;
      }

      .cls-15 {
        fill: #393831;
      }

      .cls-16 {
        fill: #f8dab7;
      }

      .cls-17 {
        clip-path: url(#clippath);
      }

      .cls-4 {
        stroke: #ee9e59;
      }
    </style>
    <linearGradient id="_ГӮГҒ_ГҸ_ГҢГҢ_ГҲ_ГӢГӮГҢГҡ_303" data-name="ВЎГӮГҒЛҡГҸЛҮГҢГҢЛҡГҲ вҖһпЈҝвҖЎвҖ°ГӢГӮГҢГҡ 303" x1="38.53" y1="93.08" x2="99.86" y2="93.08" gradientUnits="userSpaceOnUse">
      <stop offset="0" stop-color="#d45a31"/>
      <stop offset=".25" stop-color="#b53c29"/>
      <stop offset=".46" stop-color="#a02825"/>
      <stop offset=".49" stop-color="#9d2623"/>
      <stop offset=".81" stop-color="#811918"/>
      <stop offset="1" stop-color="#771414"/>
    </linearGradient>
    <clipPath id="clippath">
      <path class="cls-1" d="M41.66,40.59c1.16-.03,2.11.11,2.87.34,5.03,1.86,4.21,13.18,4.21,13.18,5.31-.26,8.88-10.05,8.88-10.05,13.06,1.93,23.52-9.51,23.52-9.51,4.62,6.67,13.38,8.1,18.21,8.37.03,4.43.26,10.12,1.08,14.61,1.57,8.59-3.63,17.78-21.04,19.59-17.41,1.81-31.08-2.78-33.01-15.12,0,0-7.38,4.01-12.09-5.31-4.72-9.32,1.93-16.21,7.38-16.09Z"/>
    </clipPath>
    <linearGradient id="_ГӮГҒ_ГҸ_ГҢГҢ_ГҲ_ГӢГӮГҢГҡ_303-2" data-name="ВЎГӮГҒЛҡГҸЛҮГҢГҢЛҡГҲ вҖһпЈҝвҖЎвҖ°ГӢГӮГҢГҡ 303" x1="41.56" y1="77.98" x2="60.52" y2="77.98" xlink:href="#_ГӮГҒ_ГҸ_ГҢГҢ_ГҲ_ГӢГӮГҢГҡ_303"/>
    <linearGradient id="_ГӮГҒ_ГҸ_ГҢГҢ_ГҲ_ГӢГӮГҢГҡ_303-3" data-name="ВЎГӮГҒЛҡГҸЛҮГҢГҢЛҡГҲ вҖһпЈҝвҖЎвҖ°ГӢГӮГҢГҡ 303" x1="38.54" y1="61.7" x2="42.71" y2="61.7" xlink:href="#_ГӮГҒ_ГҸ_ГҢГҢ_ГҲ_ГӢГӮГҢГҡ_303"/>
  </defs>
  <g>
    <g>
      <g>
        <path class="cls-16" d="M85.8,86.08l-.45,1.17c-1.14,2.92.39,6.21,3.37,7.21l11.62,3.91c2.79.94,5.81-.48,6.88-3.22h0c1.06-2.72-.19-5.79-2.85-7l-11.17-5.08c-2.87-1.31-6.25.07-7.4,3.01Z"/>
        <ellipse class="cls-16" cx="107.26" cy="96.94" rx="7.76" ry="8.2" transform="translate(-30.36 52.62) rotate(-24.26)"/>
        <line class="cls-2" x1="102.88" y1="103.25" x2="104.72" y2="99.69"/>
        <path class="cls-2" d="M103.48,99.28s1.72-.12,2.63,1.72"/>
      </g>
      <path class="cls-16" d="M84.78,106.75l7.02,12.05c2.05-.11,5.5-.02,7.9,1.56l-18.78,10.94-9.7-16.65,13.56-7.9Z"/>
      <path class="cls-16" d="M65.24,112.44l-5.85,12.66s.86,2.53.62,6.15l-17.1-7.9,8.08-17.49,14.24,6.58Z"/>
      <path class="cls-5" d="M99.7,120.38c-2.3-1.51-5.56-1.66-7.64-1.57l-12.88,9.53,1.73,2.98,18.78-10.94Z"/>
      <path class="cls-5" d="M62.44,132.51c-.08-2.75-1.83-5.51-3.09-7.16l-15.19-5.09-1.45,3.13,19.73,9.12Z"/>
      <path class="cls-5" d="M77.76,23.85s12.58-6.13,23.06-1.61c10.48,4.51,23.94,60.8-13.1,75.95l-40.25.39s-6.31,9.75-20.49,4.43c-14.19-5.32-.93-19.83,2.04-24.02,0,0-10.78-44.18,12.94-55.3,23.72-11.12,35.81.16,35.81.16Z"/>
      <polygon class="cls-6" points="50.76 74.95 38.53 113.66 99.86 113.66 89.32 74.18 51.57 72.51 50.76 74.95"/>
      <g>
        <path class="cls-16" d="M56.26,73.68l.66,1.06c1.66,2.66.76,6.17-1.98,7.71l-10.7,5.99c-2.56,1.44-5.8.6-7.36-1.89h0c-1.54-2.48-.88-5.73,1.51-7.4l10.04-7.05c2.58-1.81,6.16-1.09,7.83,1.59Z"/>
        <ellipse class="cls-16" cx="36.27" cy="88.56" rx="8.2" ry="7.76" transform="translate(-58.34 102.97) rotate(-76.39)"/>
        <line class="cls-2" x1="41.16" y1="94.23" x2="38.69" y2="91.07"/>
        <path class="cls-2" d="M39.84,90.43s-1.71.2-2.26,2.18"/>
      </g>
      <path class="cls-12" d="M52.72,70.53s-.5-5.08-3.49-4.84"/>
      <path class="cls-14" d="M82.19,63.26c1.23-.17,2.34.9,2.7,1.93.38,1.09.11,2.67-1.08,3.22-.91.42-1.95.07-2.56-.39-1.07-.79-1.33-2.26-.81-3.35.08-.17.63-1.26,1.75-1.42Z"/>
      <g class="cls-17">
        <path class="cls-16" d="M41.84,40.67c1.16-.03,2.11.11,2.87.34,5.03,1.86,4.21,13.18,4.21,13.18,5.31-.26,8.88-10.05,8.88-10.05,13.06,1.93,23.52-9.51,23.52-9.51,4.62,6.67,13.38,8.1,18.21,8.37.03,4.43.26,10.12,1.08,14.61,1.57,8.59-3.63,17.78-21.04,19.59-17.41,1.81-31.08-2.78-33.01-15.12,0,0-7.38,4.01-12.09-5.31-4.72-9.32,1.93-16.21,7.38-16.09Z"/>
        <path class="cls-4" d="M36.76,50.35s.08-4.59,4.43-4.27c4.35.32,5.4,6.21,5.4,6.21"/>
        <path class="cls-3" d="M78.36,46.6s-3.2-1.09-6.41.6"/>
        <path class="cls-3" d="M94.64,46.72s-2.62-1.65-6.37.08"/>
        <circle class="cls-10" cx="64.11" cy="62.28" r="8.24"/>
        <circle class="cls-10" cx="100.39" cy="63.06" r="8.24"/>
        <path class="cls-13" d="M87.35,56.09c-.55-2.35.39-4.69,1.97-6.59-4.14,1.91-6.64,5.34-5.79,8.33.76,2.66,3.96,4.22,7.84,4.14-2.15-1.19-3.64-3.37-4.02-5.88Z"/>
        <path class="cls-15" d="M103.37,52.19c-1-3.52-6.25-5.11-11.73-3.55-.82.23-1.59.52-2.32.86-1.58,1.9-2.52,4.24-1.97,6.59.37,2.51,1.87,4.69,4.02,5.88,1.25-.02,2.56-.21,3.89-.59,5.48-1.56,9.11-5.67,8.11-9.19Z"/>
        <path class="cls-13" d="M63.31,53.69c.48-2.37,2.31-4.1,4.54-5.16-4.56,0-8.27,2.07-8.75,5.14-.43,2.74,1.83,5.49,5.39,7.04-1.45-1.98-1.9-4.58-1.19-7.02Z"/>
        <path class="cls-15" d="M79.49,56.85c.56-3.61-3.54-7.25-9.17-8.13-.84-.13-1.67-.19-2.47-.19-2.23,1.06-4.06,2.8-4.54,5.16-.71,2.44-.27,5.04,1.19,7.02,1.14.5,2.42.88,3.78,1.09,5.63.88,10.65-1.34,11.21-4.95Z"/>
      </g>
    </g>
    <g>
      <path class="cls-7" d="M74.95,64.47c1.05-.36,1.66-.19,3.28-.14.61.02,1.68-.01,3.82-.07,1.3-.04,1.75-.01,2.42.2.77.25,1.5.81,1.7,1.6.11.42.06.87-.06,1.29-.12.42-.31.82-.56,1.18-.4.57-.94,1.02-1.51,1.42-1.82,1.26-4.09,1.99-6.26,1.58-2.34-.44-4.2-2.51-4.49-4.31-.05-.34-.18-1.15.28-1.84.13-.19.45-.6,1.36-.92Z"/>
      <path class="cls-11" d="M75.58,70.62c.64.45,1.37.8,2.16.94,1.77.33,3.61-.1,5.21-.95-1.97-2.08-4.91-1.44-7.37,0Z"/>
    </g>
    <circle class="cls-8" cx="51.04" cy="77.98" r="9.48"/>
  </g>
  <circle class="cls-9" cx="40.63" cy="61.7" r="2.08"/>
</svg>