<?xml version="1.0" encoding="UTF-8"?>
<svg id="Layer_1" data-name="Layer 1" xmlns="http://www.w3.org/2000/svg" xmlns:xlink="http://www.w3.org/1999/xlink" viewBox="0 0 134.43 152.12">
  <defs>
    <style>
      .cls-1, .cls-2, .cls-3, .cls-4 {
        fill: none;
      }

      .cls-5 {
        fill: #281e11;
      }

      .cls-6 {
        fill: url(#_ÂÁ_Ï_ÌÌ_È_ËÂÌÚ_303);
      }

      .cls-7 {
        fill: #eb6430;
      }

      .cls-8 {
        fill: url(#_ÂÁ_Ï_ÌÌ_È_ËÂÌÚ_303-2);
      }

      .cls-9 {
        fill: url(#_ÂÁ_Ï_ÌÌ_È_ËÂÌÚ_303-4);
      }

      .cls-10 {
        fill: url(#_ÂÁ_Ï_ÌÌ_È_ËÂÌÚ_303-3);
      }

      .cls-2 {
        stroke: #020202;
      }

      .cls-2, .cls-3, .cls-4 {
        stroke-linecap: round;
        stroke-linejoin: round;
      }

      .cls-2, .cls-4 {
        stroke-width: 1.89px;
      }

      .cls-11 {
        fill: #ee9e59;
      }

      .cls-12 {
        fill: #d9562e;
      }

      .cls-13 {
        fill: #502d14;
      }

      .cls-14 {
        fill: #f9f5e4;
      }

      .cls-3 {
        stroke: #3a3931;
        stroke-width: 2px;
      }

      .cls-15 {
        fill: #ec3a33;
      }

      .cls-16 {
        fill: #393831;
      }

      .cls-17 {
        fill: #f8dab7;
      }

      .cls-18 {
        clip-path: url(#clippath);
      }

      .cls-4 {
        stroke: #ee9e59;
      }
    </style>
    <linearGradient id="_ÂÁ_Ï_ÌÌ_È_ËÂÌÚ_303" data-name="¡ÂÁ˚ÏˇÌÌ˚È „‡‰ËÂÌÚ 303" x1="43.57" y1="91.22" x2="104.9" y2="91.22" gradientUnits="userSpaceOnUse">
      <stop offset="0" stop-color="#d45a31"/>
      <stop offset=".25" stop-color="#b53c29"/>
      <stop offset=".46" stop-color="#a02825"/>
      <stop offset=".49" stop-color="#9d2623"/>
      <stop offset=".81" stop-color="#811918"/>
      <stop offset="1" stop-color="#771414"/>
    </linearGradient>
    <clipPath id="clippath">
      <path class="cls-1" d="M46.7,38.73c1.16-.03,2.11.11,2.87.34,5.03,1.86,4.21,13.18,4.21,13.18,5.31-.26,8.88-10.05,8.88-10.05,13.06,1.93,23.52-9.51,23.52-9.51,4.62,6.67,13.38,8.1,18.21,8.37.03,4.43.26,10.12,1.08,14.61,1.57,8.59-3.63,17.78-21.04,19.59-17.41,1.81-31.08-2.78-33.01-15.12,0,0-7.38,4.01-12.09-5.31-4.72-9.32,1.93-16.21,7.38-16.09Z"/>
    </clipPath>
    <linearGradient id="_ÂÁ_Ï_ÌÌ_È_ËÂÌÚ_303-2" data-name="¡ÂÁ˚ÏˇÌÌ˚È „‡‰ËÂÌÚ 303" x1="43.23" y1="76.47" x2="62.19" y2="76.47" xlink:href="#_ÂÁ_Ï_ÌÌ_È_ËÂÌÚ_303"/>
    <linearGradient id="_ÂÁ_Ï_ÌÌ_È_ËÂÌÚ_303-3" data-name="¡ÂÁ˚ÏˇÌÌ˚È „‡‰ËÂÌÚ 303" x1="91.18" y1="76.77" x2="107.08" y2="76.77" xlink:href="#_ÂÁ_Ï_ÌÌ_È_ËÂÌÚ_303"/>
    <linearGradient id="_ÂÁ_Ï_ÌÌ_È_ËÂÌÚ_303-4" data-name="¡ÂÁ˚ÏˇÌÌ˚È „‡‰ËÂÌÚ 303" x1="42.97" y1="59.89" x2="47.13" y2="59.89" xlink:href="#_ÂÁ_Ï_ÌÌ_È_ËÂÌÚ_303"/>
  </defs>
  <g>
    <g>
      <path class="cls-5" d="M82.8,21.99s12.58-6.13,23.06-1.61c10.48,4.51,23.94,60.8-13.1,75.95l-40.25.39s-6.31,9.75-20.49,4.43c-14.19-5.32-.93-19.83,2.04-24.02,0,0-10.78-44.18,12.94-55.3,23.72-11.12,35.81.16,35.81.16Z"/>
      <path class="cls-17" d="M58.54,72.47l.89.88c2.24,2.2,2.19,5.82-.11,7.96l-8.99,8.34c-2.15,2-5.5,1.95-7.59-.11h0c-2.08-2.04-2.2-5.36-.28-7.55l8.1-9.22c2.08-2.37,5.73-2.51,7.98-.3Z"/>
      <path class="cls-17" d="M90.02,73.33l-.89.88c-2.24,2.2-2.19,5.82.11,7.96l8.99,8.34c2.15,2,5.5,1.95,7.59-.11h0c2.08-2.04,2.2-5.36.28-7.55l-8.1-9.22c-2.08-2.37-5.73-2.51-7.98-.3Z"/>
      <polygon class="cls-6" points="55.8 73.09 43.57 111.8 104.9 111.8 94.36 72.32 56.61 70.64 55.8 73.09"/>
      <ellipse class="cls-17" cx="105.12" cy="92.04" rx="7.76" ry="8.2"/>
      <line class="cls-2" x1="98.53" y1="96" x2="101.68" y2="93.51"/>
      <path class="cls-2" d="M100.71,92.62s1.62.59,1.69,2.65"/>
      <path class="cls-17" d="M94.41,111.8v13.94c1.83.94,4.76,2.76,6.05,5.32h-21.74v-19.27h15.69Z"/>
      <path class="cls-17" d="M54.9,111.8v13.94s-1.84,1.94-3.14,5.32h18.83v-19.27h-15.69Z"/>
      <ellipse class="cls-17" cx="42.62" cy="91.64" rx="7.76" ry="8.2"/>
      <line class="cls-2" x1="48.71" y1="96" x2="45.56" y2="93.51"/>
      <path class="cls-2" d="M46.53,92.62s-1.62.59-1.69,2.65"/>
      <line class="cls-13" x1="49.56" y1="87.98" x2="58.38" y2="73.27"/>
      <path class="cls-13" d="M57.75,68.67s-.5-5.08-3.49-4.84"/>
      <path class="cls-15" d="M87.23,61.4c1.23-.17,2.34.9,2.7,1.93.38,1.09.11,2.67-1.08,3.22-.91.42-1.95.07-2.56-.39-1.07-.79-1.33-2.26-.81-3.35.08-.17.63-1.26,1.75-1.42Z"/>
      <g class="cls-18">
        <path class="cls-17" d="M46.88,38.81c1.16-.03,2.11.11,2.87.34,5.03,1.86,4.21,13.18,4.21,13.18,5.31-.26,8.88-10.05,8.88-10.05,13.06,1.93,23.52-9.51,23.52-9.51,4.62,6.67,13.38,8.1,18.21,8.37.03,4.43.26,10.12,1.08,14.61,1.57,8.59-3.63,17.78-21.04,19.59-17.41,1.81-31.08-2.78-33.01-15.12,0,0-7.38,4.01-12.09-5.31-4.72-9.32,1.93-16.21,7.38-16.09Z"/>
        <path class="cls-4" d="M41.8,48.49s.08-4.59,4.43-4.27c4.35.32,5.4,6.21,5.4,6.21"/>
        <path class="cls-3" d="M83.4,44.74s-3.2-1.09-6.41.6"/>
        <path class="cls-3" d="M99.68,44.86s-2.62-1.65-6.37.08"/>
        <circle class="cls-11" cx="69.15" cy="60.42" r="8.24"/>
        <circle class="cls-11" cx="105.43" cy="61.2" r="8.24"/>
        <path class="cls-14" d="M92.39,54.23c-.55-2.35.39-4.69,1.97-6.59-4.14,1.91-6.64,5.34-5.79,8.33.76,2.66,3.96,4.22,7.84,4.14-2.15-1.19-3.64-3.37-4.02-5.88Z"/>
        <path class="cls-16" d="M108.41,50.33c-1-3.52-6.25-5.11-11.73-3.55-.82.23-1.59.52-2.32.86-1.58,1.9-2.52,4.24-1.97,6.59.37,2.51,1.87,4.69,4.02,5.88,1.25-.02,2.56-.21,3.89-.59,5.48-1.56,9.11-5.67,8.11-9.19Z"/>
        <path class="cls-14" d="M68.35,51.83c.48-2.37,2.31-4.1,4.54-5.16-4.56,0-8.27,2.07-8.75,5.14-.43,2.74,1.83,5.49,5.39,7.04-1.45-1.98-1.9-4.58-1.19-7.02Z"/>
        <path class="cls-16" d="M84.53,54.99c.56-3.61-3.54-7.25-9.17-8.13-.84-.13-1.67-.19-2.47-.19-2.23,1.06-4.06,2.8-4.54,5.16-.71,2.44-.27,5.04,1.19,7.02,1.14.5,2.42.88,3.78,1.09,5.63.88,10.65-1.34,11.21-4.95Z"/>
      </g>
      <path class="cls-5" d="M100.45,131.08c-1.23-2.46-3.97-4.23-5.81-5.2l-15.93,1.75v3.45h21.74Z"/>
      <path class="cls-5" d="M49.02,131.19c1.23-2.46,3.97-4.23,5.81-5.2l15.93,1.75v3.45h-21.74Z"/>
    </g>
    <g>
      <path class="cls-7" d="M82.82,63.54c1.05-.36,1.66-.19,3.28-.14.61.02,1.68-.01,3.82-.07,1.3-.04,1.75-.01,2.42.2.77.25,1.5.81,1.7,1.6.11.42.06.87-.06,1.29-.12.42-.31.82-.56,1.18-.4.57-.94,1.02-1.51,1.42-1.82,1.26-4.09,1.99-6.26,1.58-2.34-.44-4.2-2.51-4.49-4.31-.05-.34-.18-1.15.28-1.84.13-.19.45-.6,1.36-.92Z"/>
      <path class="cls-12" d="M83.45,69.69c.64.45,1.37.8,2.16.94,1.77.33,3.61-.1,5.21-.95-1.97-2.08-4.91-1.44-7.37,0Z"/>
    </g>
    <circle class="cls-8" cx="52.71" cy="76.47" r="9.48"/>
    <circle class="cls-10" cx="99.13" cy="76.77" r="7.95"/>
  </g>
  <circle class="cls-9" cx="45.05" cy="59.89" r="2.08"/>
</svg>