<?xml version="1.0" encoding="UTF-8"?>
<svg xmlns="http://www.w3.org/2000/svg" viewBox="0 0 154.63 67.71">
  <defs>
    <style>
      .cls-1 {
        fill: #923125;
      }

      .cls-2 {
        mix-blend-mode: multiply;
        opacity: .21;
      }

      .cls-3 {
        isolation: isolate;
      }

      .cls-4, .cls-5 {
        fill: #fef5a5;
      }

      .cls-6, .cls-5 {
        fill-rule: evenodd;
      }
    </style>
  </defs>
  <g class="cls-3">
    <g id="Layer_1" data-name="Layer 1">
      <g>
        <g>
          <g class="cls-2">
            <path class="cls-6" d="M39.51,63.43c-12.32,0-22.34-10.02-22.34-22.34s10.02-22.34,22.34-22.34h81.45c12.32,0,22.34,10.02,22.34,22.34s-10.02,22.34-22.34,22.34H39.51Z"/>
          </g>
          <path class="cls-5" d="M34.51,59.43c-12.32,0-22.34-10.02-22.34-22.34s10.02-22.34,22.34-22.34h81.45c12.32,0,22.34,10.02,22.34,22.34s-10.02,22.34-22.34,22.34H34.51Z"/>
        </g>
        <rect class="cls-1" x="18.66" y="21.57" width="112.13" height="30.68" rx="15.34" ry="15.34"/>
        <g>
          <path class="cls-4" d="M32.78,41.27c-.15,0-.36-.1-.49-.1-.23,0-.43.04-.68.04-.14,0-.21-.03-.21-.25,0-.92.05-1.82.05-2.74,0-.63-.04-1.28-.04-1.9,0-.55-.06-1.12-.06-1.69,0-.49-.14-1.91.25-1.91.1,0,.19.01.28.01.14,0,.28-.04.43-.04.67,0,1.29.04,1.99.04.04,0,.08-.03.12-.03.26,0,.62-.04.92.05.34.1,1.14.04,1.61.04.22,0,.72.06,1.15.4.09.04.86.53.86,1.54.01,0,.09.93-.65,1.5-.05.05-.92.28-.92.43,0,.22.61.31.99.54.22.22.88.66.88,1.43,0,.25-.09.44-.16.61-.35.87-.37.84-.92,1.3-.01,0-.65.39-1.05.39-.34.06-.43.23-1.17.23h-.83c-.21.01-.39-.04-.58-.04-.41,0-.85.03-1.21.09-.19.03-.37.05-.57.05ZM35.05,39.44c.23,0,.43-.05.66-.1-.08,0,.77-.05.77-.63,0-.08,0-.15-.01-.25,0-.48-.75-.88-1.15-.88-.23,0-.76-.06-1.05.08.1.01-.16-.04-.16.35,0,.16-.01.3.01.44,0,.03,0,.05-.01.06,0,.09.04.3.08.43,0,.57.36.5.77.5h.08ZM35.59,36.08c.08-.04.7-.01.7-.75,0-.17-.13-.8-.62-.8-.22,0-.46.01-.63-.03-.19,0-.4.04-.53.04-.36,0-.27.44-.27.72,0,.19-.17.89.54.89.25,0,.5.08.81-.08Z"/>
          <path class="cls-4" d="M44.89,41.93c-.19,0-.27-.15-.27-.34-.1-.41-.18-.81-.26-1.21-.01-.03-.17-1.3-.4-1.3-.12,0-.25.03-.36.03-.08,0-.15-.03-.23-.03-.31,0-.59.13-.85.13-.36,0-.37.76-.41,1.05-.04.25-.17.5-.23,1.02-.17.34-.72.32-1.11.32s-1.21.18-1.21-.43c0-.43.21-1.16.21-1.76.08-1.5.49-2.58.77-3.72.08-.32.28-.88.32-1.28.13-.65.4-1.41.63-2.08,0-.49.15-.74.65-.74h1.76c.25,0,.56.05.81.16.28.12.17.81.63,2.08.23.46.26,1.21.43,1.83.14.4.09.77.3,1.16.15.31.19.62.56,2.1.18.75.34,1.08.41,1.67.05.23.13.45.13.68,0,.14.01.61-.08.61-.1,0-.3.01-.39-.03-.39,0-.8.05-1.1.05-.13,0-.27-.03-.4-.03-.09,0-.19.01-.28.03h-.01ZM43.78,36.33c0-.31-.12-.61-.12-.88-.01-.15-.09-1.1-.35-1.1-.17,0-.19.44-.23.66-.05.28-.43,1.28-.43,2.04,0,.21.12.14.28.19.87,0,.84-.17.84-.92Z"/>
          <path class="cls-4" d="M51.71,41.63c-.46,0-.99-.23-1.47-.28-.74,0-1.5-.59-2.04-1.41-.13-.19-.93-1.2-.93-2.69,0-.52,0-.97.09-1.47,0-.27.06-.63.3-1.11.17-.32.23-.53.41-.84.01-.01.17-.45.46-.67.46-.34.74-.74,1.14-.96,0,0,.26-.17.37-.17.14,0,.28.04.43.04.3,0,.59-.05.89-.05,1.15,0,1.83,0,2.36.8.19.28.06.89.32,1.14,0,.52.09.77.09,1.39,0,1.2-.46,1.17-1.5,1.17.12.01-1.24.05-1.24-.36,0-.32.14-.49.14-.89,0-.21,0-.76-.31-.76-.21,0-.5.19-.83.52-.08.08-.37.65-.37,1.51,0,.25,0,.46.04.7,0,.21.05,1.24.75,1.24.32,0,.65-.03.98-.03.27-.03.66-.05.99-.22.1,0,.48-.32.68-.32.34,0,.32.67.48,1.11.06.19.26.54.26.79,0,.45-.34.66-.55.86-.21.21-.52.27-.74.46-.43.37-.84.31-1.16.48-.01,0-.04.01-.05.01Z"/>
          <path class="cls-4" d="M61.22,42.37c-.35,0-.71-.85-1.01-1.16-.34-.32-.46-.8-.7-1.2-.17-.28-.28-.71-.53-1.05-.01-.05-.34-.57-.39-.57h-.03c-.22.22-.43.36-.66.59-.17.17-.12.74-.25,1.14,0,.21.01.4.01.59,0,.25-.15.28-.36.28-.18,0-.32-.06-.5-.06-.26,0-.67.06-1.07.06-.36,0-.8.04-.8-.48,0-.44.04-.98.04-1.47v-.49s0-.04.03-.05c0-.34-.04-.71-.04-1.06,0-.71.03-1.41.03-2.1,0-.05-.01-.09-.01-.14,0-.66.03-1.3.03-1.99,0-.39-.03-.53-.03-1.02,0-.19.1-.19.22-.19.39,0,.79.03,1.17.03.28,0,.53.12.81.12.13,0,.21-.01.37-.01.25,0,.3.26.3.59s-.06,1.1-.06,1.7c.01.08.03.15.03.23,0,.44-.01.88-.01,1.32.25-.37.53-.88.85-1.24.17-.18.3-.23.48-.53.13-.3.43-.59.68-.93.34-.54.48-.44.84-1.16.06-.09.36-.54.58-.54.14,0,.4.25.59.35.25.14.3.32.49.46.13.09.62.09.62.48,0,.25-.35.62-.54.84-.39.44-.79,1.24-1.3,1.76-.05.06-.48.46-.48.96,0,.13.23.55.4.83.4.41.57,1.16,1.06,1.79.04.08.31.84.9,1.43.03.05.44.61.44.81,0,.04-.09.27-.34.27-.43.19-.71.35-1.01.59-.13.12-.46.15-.56.19-.05.03-.26.03-.31.03ZM57.68,36.07v-.04h-.01s.01.01.01.03h0ZM58.99,38.96h0s.01,0,0,0Z"/>
          <path class="cls-4" d="M69.21,41.27c-.34-.06-.4-.31-.4-.98,0-1.58.14-2.47.14-3.71v-.25c-.23-1.36.09-1.39-1.25-1.39-.25,0-.37.08-.71.08-.14,0-.44-.08-.44-.18v-1.06c0-.22-.06-.37-.06-.67,0-.14-.01-.4.21-.4.18,0,.28.08.45.08.06,0,.14-.01.21-.01.16,0,.59.06,1.02.06.22,0,.56-.04.85-.04.23,0,.41.04.61.04.14,0,.31-.03.41-.03.49,0,1.01.06,1.5.06.52,0,1.14,0,1.74-.09.12,0,.34-.04.34.17,0,.23-.04.52-.06.75,0,.1.01.23.01.32,0,1.14-.01,1.15-.79,1.15-.14,0-.22-.04-.34-.04-.16,0-.31.05-.46.05-.17,0-.27-.05-.44-.05-.03,0-.14.09-.14.22,0,.49.01.98.01,1.46,0,1.11-.13,2.38-.13,3.5,0,.81-.04.88-.5.88-.12,0-.21-.03-.3-.03-.45,0-.88.01-1.29.09-.05.01-.12.01-.18.01Z"/>
          <path class="cls-4" d="M77.89,40.83c-.17,0-.32-.03-.46-.05-.79-.22-1.77-.28-2.32-.85-.66-.76-1.33-1.64-1.33-2.85,0-1.1.32-2.17,1.07-3.05v-.05c.52-.62,1.54-1.33,2.38-1.33,1.34,0,2.22.21,3.03.75.22.15.77.46.99.75.4.71.59,1.33.59,2.04,0,1.87-.49,2.72-1.36,3.49-.09.1-.15.22-.26.32-.17.17-1.41.8-1.74.8-.19.03-.4.04-.59.04ZM77.78,38.28c.17,0,.57-.09.81-.22.31-.13.59-.74.59-1.1,0-.84-.19-1.73-1.33-1.73-.68,0-1.28.35-1.33,1.15-.01,0,.03,0,.03.05-.03.08-.04.22-.04.32,0,.12.05.26.05.34,0,.01-.01.03-.01.03.25.85.5,1.05.96,1.14.09.01.18.03.27.03Z"/>
          <path class="cls-4" d="M85.62,41.47c0-.26.04-.52.04-.77,0-.17-.01-.32-.01-.49,0-.48.09-.97.09-1.45,0-.09-.01-.19-.01-.28v-.23c0-.31-.03-.61-.03-.9,0-.06,0-.13.01-.19-.1-.48-.09-1.1-.09-1.63,0-.27.03-.54.03-.83,0-.4-.09-.81-.09-1.21,0-1.37.09-1.42.77-1.42.05,0,.4-.13.74-.13s.65.06.98.06c.04,0,.06-.01.1-.01.32,0,.46.1.46.34,0,.16-.03.31-.03.46,0,.21.04.4.04.59,0,.57-.1,1.32-.13,1.99,0,.14.19.14.23.15.03,0,.05-.01.09-.01.28.03.53.04.88.08.46,0,.49-.13.49-.68v-.1c0-.21.03-.43.05-.65-.03-.25-.12-.9-.12-1.52v-.05c0-.05-.01-.09-.01-.14,0-.32.31-.41.72-.41.17,0,.28.06.46.06.1,0,.19-.05.3-.05.19,0,.39.03.58.04.14,0,.28-.01.43-.01.45,0,.77-.05.77.74-.05.59-.08,1.16-.08,1.76,0,1.21-.1,1.83-.1,2.72,0,.28.05.59.05.89,0,.44-.1.88-.1,1.32,0,.09.01.19.01.28,0,.22,0,.45-.01.67,0,.12.01.19.01.28,0,.26-.05.83-.37.83-.21-.03-.4-.04-.61-.06-.08,0-.15.03-.22.03-.22,0-.43-.05-.65-.05-.13,0-.27.04-.39.04-.21,0-.46-.03-.68-.08-.18,0-.15-.21-.15-.41,0-.13-.05-.25-.05-.37,0-.14.01-.19.01-.28,0-.21-.05-1.25.13-1.82,0-.34,0-.52-.17-.68-.1,0-.21.01-.3.01-.27-.04-.54-.05-.81-.05-.34,0-.36.4-.36.81,0,.52-.09,1.02-.09,1.56,0,.4.13.84.13,1.41,0,.35-.27.31-.72.31-.01,0-.01-.01-.03-.01-.13,0-.25.03-.36.03-.08-.01-.14-.01-.21-.01-.23,0-.49.05-.72.08-.31,0-.92.01-.92-.5Z"/>
          <path class="cls-4" d="M98.05,40.83c-.17,0-.32-.03-.46-.05-.79-.22-1.77-.28-2.32-.85-.66-.76-1.33-1.64-1.33-2.85,0-1.1.32-2.17,1.07-3.05v-.05c.52-.62,1.54-1.33,2.38-1.33,1.34,0,2.22.21,3.03.75.22.15.77.46.99.75.4.71.59,1.33.59,2.04,0,1.87-.49,2.72-1.36,3.49-.09.1-.15.22-.26.32-.17.17-1.41.8-1.74.8-.19.03-.4.04-.59.04ZM97.93,38.28c.17,0,.57-.09.81-.22.31-.13.59-.74.59-1.1,0-.84-.19-1.73-1.33-1.73-.68,0-1.28.35-1.33,1.15-.01,0,.03,0,.03.05-.03.08-.04.22-.04.32,0,.12.05.26.05.34,0,.01-.01.03-.01.03.25.85.5,1.05.96,1.14.09.01.18.03.27.03Z"/>
          <path class="cls-4" d="M104.97,41.97c-.21,0-.39,0-.59-.04-.31,0-.65.03-.94.03-.22,0-.7.08-.7-.15v-.21c0-.4-.04-1.03-.04-1.85,0-.49.03-1.03.03-1.52v-1.67c0-.31-.05-.62-.05-.94s.01-.59.08-.89c0-.7-.05-1.37-.05-2.01,0-.18.03-.46.19-.46.12,0,.19.05.31.05.28,0,.7-.09,1.24-.09.25,0,.5.03.76.03.3,0,.54-.13.86.3.19.32.3.74.5,1.05.26.59.46.99.8,1.6-.01,0,0,.22.22.43.05.05.41.48.62.48.22-.21.59-.58.71-.96.14-.5.66-1.38.89-2.14.4-1.14.28-.71,1.33-.9.09,0,.19,0,.28.01h.3c.31,0,.7.05,1.03.05.03.01.53,0,.53.25,0,.04-.01.09-.01.13,0,.14.03.3.03.44,0,.27-.05.53-.05.8v3.14c0,.36-.03.74-.03,1.07,0,.26.01.52.01.79,0,.44-.03.85-.03,1.32v.32c0,.36.21,1.07-.41,1.07-.39,0-.8-.05-1.2-.05-.15,0-.32.03-.48.03-.09,0-.37-.03-.37-.18-.05-.53-.04-1.06-.05-1.59-.17-.84-.03-1.51-.22-2.31-.21.3-.35,1.01-.59,1.39-.14.31-.3.56-.45.83-.18.32-.17.83-.61.83-.26,0-.49-.05-.71-.05-.18,0-.28.1-.49.1-.14,0-.26-.17-.31-.28-.26-.32-.46-.85-.79-1.23-.25-.37-.58-1.21-1.08-1.7-.21,0-.15,1.65-.15,2.03v.16s-.01.04-.01.06c0,.59.3,1.45.3,2.17,0,.39-.17.3-.46.3-.04,0-.09.01-.13.01Z"/>
          <path class="cls-4" d="M118.22,40.82c-.62,0-1.43.08-2.45-.08-.76-.12-1.52.15-1.52-.52,0-.53-.01-1.05-.01-1.56,0-.37.05-.83.05-1.29,0-.03-.09-.54-.09-.74,0-1.28-.09-4.04.14-4.04.08,0,.17,0,.25.01.31.09.72.05,1.05.05.48,0,1.12-.14,1.7-.14.28,0,.52.01.79.05,0-.01.01-.01.03-.01.1,0,.21.01.32.01.25,0,.5-.08.88-.08.57,0,1.19,0,1.87.09.39,0,1.3-.09,1.3.17,0,.23-.04.45-.1.68,0,.28.04.58.04.83,0,.19.09.59-.22.59-.14,0-.27-.01-.41-.01-.09,0-.18.03-.27.03-.25,0-.49-.05-.72-.05h-.17c-.57,0-1.1-.05-1.67-.05-.36,0-.71.06-1.07.06-.05,0-.1-.01-.15-.01h-.1c-.14,0-.3-.01-.43-.03-.18,0-.17.25-.17.5.01.05.01.12.03.17,0,.03-.01.06-.01.09.09.18.77.17,1.48.17.23,0,.5-.03.72-.03.49,0,1.01-.03,1.47-.03.1,0,.25.01.36.04.1-.01.18-.05.31-.05.44,0,.49.03.49.19,0,.19-.03.46-.06.68,0,.34.01.7.01,1.05,0,.13-.32.15-.52.15-.18,0-.35-.01-.53-.01-.18-.03-.61.08-1.07-.08-.09.03-.21.03-.3.03-.41,0-1.15-.03-1.78-.1-.23.03-.45.05-.62.08,0,.06.03.09.03.12,0,.22-.04.36-.04.56.08.15.65.17.86.17.68,0,.97-.08,1.9-.08.68,0,1.19-.03,2.14.04.06,0,.13-.01.21-.01.19,0,.35.14.35.45,0,.01,0,.03-.01.04.04.18.1.32.1.57,0,.15-.08.52-.08.81,0,.12.04.22.04.32,0,.13-.08.13-.18.13-.23,0-.44-.01-.65-.01-.43,0-.88,0-1.29.09-.75,0-1.41-.01-2.22-.01ZM117.51,38.74h-.09.09ZM118.84,35.84s.01-.01.03-.01h-.1s.05.01.08.01ZM122.36,38.93s-.01-.08-.01-.09c0,.04.01.06.01.09Z"/>
        </g>
      </g>
    </g>
  </g>
</svg>