<?xml version="1.0" encoding="UTF-8"?>
<svg id="Layer_1" data-name="Layer 1" xmlns="http://www.w3.org/2000/svg" xmlns:xlink="http://www.w3.org/1999/xlink" viewBox="0 0 240.64 80.52">
  <defs>
    <style>
      .cls-1, .cls-2 {
        fill: #fef5a5;
      }

      .cls-3 {
        filter: url(#drop-shadow-17);
      }

      .cls-4 {
        fill: #bfb931;
      }

      .cls-2 {
        fill-rule: evenodd;
      }
    </style>
    <filter id="drop-shadow-17" x="12.09" y="10.8" width="216.16" height="65.25" filterUnits="userSpaceOnUse">
      <feOffset dx="5" dy="4"/>
      <feGaussianBlur result="blur" stdDeviation="0"/>
      <feFlood flood-color="#000" flood-opacity=".21"/>
      <feComposite in2="blur" operator="in"/>
      <feComposite in="SourceGraphic"/>
    </filter>
  </defs>
  <g class="cls-3">
    <path class="cls-2" d="M42.71,72.05c-16.89,0-30.62-13.74-30.62-30.62s13.74-30.62,30.62-30.62h149.91c16.89,0,30.62,13.74,30.62,30.62s-13.74,30.62-30.62,30.62H42.71Z"/>
    <rect class="cls-4" x="22.09" y="20.56" width="191.16" height="41.25" rx="20.62" ry="20.62"/>
    <g>
      <path class="cls-1" d="M82.93,50.21c-.81-.42-.83-.9-1.99-2.47-.32-.42-.68-1.6-1.19-2.12-.44-.44-.63-.74-.95-1.33.17,0-.4-.2-1.1-.2-.13,0-.15.11-.15.28,0,.68.13,1.46.13,2.21,0,.57,0,.77.08,1.36,0,.52-.23.77-1.06.77-.25-.02-.57-.09-.8-.09-.57,0-1.19.2-1.55.2h-.63c-.13,0-.23,0-.36.02-.08,0-.19-.02-.19-.11v-.02c0-.39-.06-.83-.06-1.22,0-1.05.19-1.95.19-2.95,0-.33-.06-.7-.11-1.03,0-.77,0-1.47.06-2.21,0-.04-.02-.22-.02-.26,0-.13.02-.28.04-.44,0-.28-.02-.59-.02-.9,0-.5.04-1.01.04-1.53,0-.35-.08-.7-.08-1.05,0-.09,0-.15.02-.24-.06-.31-.08-.57-.08-.9,0-.37.04-.83.19-1.14.53-.55.83-.68,1.46-.68.3,0,.63.02.95.07.4-.04.85-.07,1.23-.07h.13c.59,0,1.16-.11,1.76-.11.08,0,.17.02.25.02.3,0,.57-.07.87-.07.51.07,1.02.17,1.53.17.08,0,.17-.04.34-.04,1.31.09,1.76.31,2.82,1.29,1.08,1.12,1.19,3.08,1.19,4.18,0,.2-.04.48-.08.59-.21.85-.85,1.75-1.42,2.34-.19.18-.85.5-.85.7l.02.02c.28.48.68,1.31.93,1.92.4.72,1.21,1.84,1.63,2.93,0,.09.15.31-.91.83-.89.17-1.33.9-2.08,1.27h-.17ZM79.25,40.76h.21c.3,0,.72,0,1.21-.26.17-.04.68-.26.68-1.25-.19-1.49-1.14-1.44-1.8-1.55-1.48.15-1.82.04-1.82.94,0,.22.04.48.04.7,0,.04-.02.09-.02.13v.85c0,.46.51.39,1,.46.17,0,.36-.02.51-.02Z"/>
      <path class="cls-1" d="M93.71,48.39c-1.02,0-2.35.13-4.02-.13-1.25-.2-2.5.26-2.5-.87,0-.9-.02-1.77-.02-2.65,0-.63.08-1.4.08-2.19,0-.04-.15-.92-.15-1.25,0-2.17-.15-6.84.23-6.84.13,0,.28,0,.4.02.51.15,1.19.09,1.72.09.78,0,1.84-.24,2.8-.24.47,0,.85.02,1.29.09,0-.02.02-.02.04-.02.17,0,.34.02.53.02.4,0,.83-.13,1.44-.13.93,0,1.95,0,3.07.15.63,0,2.14-.15,2.14.28,0,.39-.06.77-.17,1.16,0,.48.06.98.06,1.4,0,.33.15,1.01-.36,1.01-.23,0-.45-.02-.68-.02-.15,0-.3.04-.45.04-.4,0-.8-.09-1.19-.09h-.28c-.93,0-1.8-.09-2.73-.09-.59,0-1.16.11-1.76.11-.08,0-.17-.02-.25-.02h-.17c-.23,0-.49-.02-.7-.04-.3,0-.28.42-.28.85.02.09.02.2.04.28,0,.04-.02.11-.02.15.15.31,1.27.28,2.44.28.38,0,.83-.04,1.19-.04.8,0,1.65-.04,2.42-.04.17,0,.4.02.59.07.17-.02.3-.09.51-.09.72,0,.8.04.8.33,0,.33-.04.79-.11,1.16,0,.57.02,1.18.02,1.77,0,.22-.53.26-.85.26-.3,0-.57-.02-.87-.02-.3-.04-1,.13-1.76-.13-.15.04-.34.04-.49.04-.68,0-1.88-.04-2.92-.17-.38.04-.74.09-1.02.13,0,.11.04.15.04.2,0,.37-.06.61-.06.94.13.26,1.06.28,1.42.28,1.12,0,1.59-.13,3.11-.13,1.12,0,1.95-.04,3.52.07.11,0,.21-.02.34-.02.32,0,.57.24.57.77,0,.02,0,.04-.02.07.06.31.17.55.17.96,0,.26-.13.87-.13,1.38,0,.2.06.37.06.55,0,.22-.13.22-.3.22-.38,0-.72-.02-1.06-.02-.7,0-1.44,0-2.12.15-1.23,0-2.31-.02-3.64-.02ZM92.55,44.87h-.15.15ZM94.73,39.95s.02-.02.04-.02h-.17s.08.02.13.02ZM100.51,45.2c0-.07-.02-.13-.02-.15,0,.07.02.11.02.15Z"/>
      <path class="cls-1" d="M104.54,49.62c-2.16,0-2.14-.55-2.14-1.62,0-.44.06-.83.11-1.29,0-.02-.02-.07-.02-.09,0,0,.02-2.19.74-2.19.06,0,.13.02.19.04.76.28,1.46.31,2.18.52.32.11.95.13,1.48.31.42,0,1-.2,1-.7,0-.17-.13-.35-.28-.48,0,0-1.23-1.03-1.97-1.03-1.23-.46-1.99-.57-2.79-1.4-.34-.35-.66-.18-1.06-1.71-.23-.37-.25-.85-.34-1.33,0-.61.17-1.18.38-1.73,0,0,.66-1.38,1-1.55.38-.66.8-.59,1.17-.96.23-.24.78-.35,1.14-.48.08-.02.95-.37,1.74-.37.11,0,.23.04.36.04-.06.02-.13.02-.15.02.66.09,1.14.15,1.72.24.34.13.8.5,1.38.63,0,0,.72.26.72,1.2-.06.42-.11.83-.15,1.29-.02.2-.06,1.77-.85,1.77-.61,0-1.08-.17-1.59-.31-.17-.04-.72-.26-.97-.26-.15,0-.3.02-.47.02-.13,0-1.06-.07-1.06.59,0,.22.36.5.49.61.44.61,1.82.83,2.63,1.31.28.17,1.12.5,1.61.96.57.55,1.63,2.01,1.63,3.7,0,.24-.08.74-.19,1.03-.23,1.47-1.25,2.34-2.61,2.69-.63,0-1.02.28-1.57.28-.49,0-1.19.17-1.74.17-.3,0-.57-.02-.87-.04-.19,0-.4.07-.59.07-.08,0-.17.02-.25.02ZM112.14,45.44s.02-.07-.02-.07c0,.02.02.04.02.07Z"/>
      <path class="cls-1" d="M119.32,49.66c-.13-.02-.25-.07-.4-.07h-.17c-.23-.02-1.5-.42-1.67-.5-.95-.48-.87-.66-1.67-1.09-.32-.15-.66-.7-.95-1.05-.11-.11-.49-.52-.68-1.42-.19-1.84-.66-3.45-.66-5.29,0-.5.02-1.03.02-1.51,0-.72-.04-1.31-.04-2.03.3-3.5.42-2.91,1.76-3.02.02,0,.06.02.08.02.47,0,.87-.13,1.36-.13h.32c.15-.02.3-.02.44-.02.66,0,.76.52.76,1.12,0,.39-.06.83-.06,1.22,0,.96-.25,1.95-.34,2.86,0,.5.04.98.04,1.4,0,.44-.02.87-.02,1.31s-.06,1.16.21,1.77c.72,1.33.89,1.03,1.84,1.51.02-.02.04-.04.06-.04.06,0,.19.09.34.09.28,0,.49-.11.7-.11.19,0,.32.13.57.13.83.02.91-.13,1.31-.28,1.19-.42.95-1.03,1.29-1.68.21-.81.19-1.75.19-2.69s.11-2.69-.08-3.78c0-1.4.04-1.51,1.4-1.51.06-.04.23-.02.34-.02.13,0,.25.02.38.02.28-.04.95-.22,1.48-.22.66,0,.95-.07.95.63,0,.37-.02.72-.02,1.09,0,.7.06,1.4.06,2.08,0,.57-.06,1.31-.06,2.1,0,.31.04.59.04.9s-.04.61-.04.92v.22c0,1.53-.53,2.25-.93,3.87-.32.33-.66.61-1,.9-1.19.61-.11.42-2.01,1.42-.19.2-.74.33-1.02.48.17-.17-.61.33-1.42.33-.34,0-.7-.02-1.04-.02-.3,0-.61.07-.95.07-.23.04-.47.04-.72.04Z"/>
      <path class="cls-1" d="M133.58,50.34c-.34,0-.64,0-.97-.07-.51,0-1.06.04-1.55.04-.36,0-1.14.13-1.14-.26v-.35c0-.68-.06-1.75-.06-3.13,0-.83.04-1.75.04-2.58v-2.82c0-.52-.08-1.05-.08-1.6s.02-1.01.13-1.51c0-1.18-.08-2.32-.08-3.41,0-.31.04-.79.32-.79.19,0,.32.09.51.09.47,0,1.14-.15,2.03-.15.4,0,.83.04,1.25.04.49,0,.89-.22,1.42.5.32.55.49,1.25.83,1.77.42,1.01.76,1.68,1.31,2.71-.02,0,0,.37.36.72.08.09.68.81,1.02.81.36-.35.97-.98,1.17-1.62.23-.85,1.08-2.34,1.46-3.63.66-1.92.47-1.2,2.18-1.53.15,0,.32,0,.47.02h.49c.51,0,1.14.09,1.69.09.04.02.87,0,.87.42,0,.07-.02.15-.02.22,0,.24.04.5.04.74,0,.46-.08.9-.08,1.36v5.31c0,.61-.04,1.25-.04,1.81,0,.44.02.87.02,1.33,0,.74-.04,1.44-.04,2.23v.55c0,.61.34,1.81-.68,1.81-.63,0-1.31-.09-1.97-.09-.25,0-.53.04-.78.04-.15,0-.61-.04-.61-.31-.08-.9-.06-1.79-.08-2.69-.28-1.42-.04-2.56-.36-3.91-.34.5-.57,1.71-.97,2.36-.23.52-.49.94-.74,1.4-.3.55-.28,1.4-1,1.4-.42,0-.8-.09-1.16-.09-.3,0-.47.18-.81.18-.23,0-.42-.28-.51-.48-.42-.55-.76-1.44-1.29-2.08-.4-.63-.95-2.06-1.78-2.89-.34,0-.25,2.8-.25,3.43v.26s-.02.07-.02.11c0,1.01.49,2.45.49,3.67,0,.66-.28.5-.76.5-.06,0-.15.02-.21.02Z"/>
      <path class="cls-1" d="M155.33,48.39c-1.02,0-2.35.13-4.02-.13-1.25-.2-2.5.26-2.5-.87,0-.9-.02-1.77-.02-2.65,0-.63.08-1.4.08-2.19,0-.04-.15-.92-.15-1.25,0-2.17-.15-6.84.23-6.84.13,0,.28,0,.4.02.51.15,1.19.09,1.71.09.78,0,1.84-.24,2.8-.24.47,0,.85.02,1.29.09,0-.02.02-.02.04-.02.17,0,.34.02.53.02.4,0,.83-.13,1.44-.13.93,0,1.95,0,3.07.15.64,0,2.14-.15,2.14.28,0,.39-.06.77-.17,1.16,0,.48.06.98.06,1.4,0,.33.15,1.01-.36,1.01-.23,0-.44-.02-.68-.02-.15,0-.3.04-.44.04-.4,0-.8-.09-1.19-.09h-.27c-.93,0-1.8-.09-2.73-.09-.59,0-1.17.11-1.76.11-.08,0-.17-.02-.25-.02h-.17c-.23,0-.49-.02-.7-.04-.3,0-.28.42-.28.85.02.09.02.2.04.28,0,.04-.02.11-.02.15.15.31,1.27.28,2.44.28.38,0,.83-.04,1.19-.04.8,0,1.65-.04,2.41-.04.17,0,.4.02.59.07.17-.02.3-.09.51-.09.72,0,.8.04.8.33,0,.33-.04.79-.11,1.16,0,.57.02,1.18.02,1.77,0,.22-.53.26-.85.26-.3,0-.57-.02-.87-.02-.3-.04-1,.13-1.76-.13-.15.04-.34.04-.49.04-.68,0-1.89-.04-2.92-.17-.38.04-.74.09-1.02.13,0,.11.04.15.04.2,0,.37-.06.61-.06.94.13.26,1.06.28,1.42.28,1.12,0,1.59-.13,3.11-.13,1.12,0,1.95-.04,3.52.07.11,0,.21-.02.34-.02.32,0,.57.24.57.77,0,.02,0,.04-.02.07.06.31.17.55.17.96,0,.26-.13.87-.13,1.38,0,.2.06.37.06.55,0,.22-.13.22-.3.22-.38,0-.72-.02-1.06-.02-.7,0-1.44,0-2.12.15-1.23,0-2.31-.02-3.64-.02ZM154.16,44.87h-.15.15ZM156.34,39.95s.02-.02.04-.02h-.17s.08.02.13.02ZM162.13,45.2c0-.07-.02-.13-.02-.15,0,.07.02.11.02.15Z"/>
    </g>
  </g>
</svg>