<?xml version="1.0" encoding="UTF-8"?>
<svg id="Layer_1" data-name="Layer 1" xmlns="http://www.w3.org/2000/svg" xmlns:xlink="http://www.w3.org/1999/xlink" viewBox="0 0 68.41 66.3">
  <defs>
    <style>
      .cls-1 {
        fill: #fef5a5;
      }

      .cls-2 {
        filter: url(#drop-shadow-18);
      }

      .cls-3 {
        fill-rule: evenodd;
      }

      .cls-3, .cls-4 {
        fill: #bfb931;
      }
    </style>
    <filter id="drop-shadow-18" x="-67.21" y="6.07" width="130.07" height="56.88" filterUnits="userSpaceOnUse">
      <feOffset dx="4" dy="2"/>
      <feGaussianBlur result="blur" stdDeviation="0"/>
      <feFlood flood-color="#000" flood-opacity=".21"/>
      <feComposite in2="blur" operator="in"/>
      <feComposite in="SourceGraphic"/>
    </filter>
  </defs>
  <g class="cls-2">
    <path class="cls-3" d="M31.42,60.95c-15.13,0-27.44-12.31-27.44-27.44S16.29,6.07,31.42,6.07s27.44,12.31,27.44,27.44-12.31,27.44-27.44,27.44Z"/>
    <rect class="cls-1" x="10.38" y="12.07" width="42.88" height="42.88" rx="21.44" ry="21.44"/>
  </g>
  <g id="Qj11aZ">
    <path class="cls-4" d="M38.95,32.9c-1.07-1.63-2.6-2.71-4.37-3.49-.09-.04-.17-.01-.22,0-.08.03-.14.12-.14.24l-.02,8.68c0,1.29-.57,2.47-1.43,3.39-1.96,2.1-5.21,2.33-7.71,1.18-1.46-.67-2.54-1.8-2.99-3.56-.06-.22-.06-.47,0-.69.48-1.91,1.76-3.11,3.39-3.74,1.89-.74,3.96-.65,5.83.09.22.09.49.01.65-.1.15-.11.24-.31.24-.55v-12.78c0-.61.51-1.04,1.06-1.02s1.01.52.98,1.12c-.03.64.23,1.17.7,1.58.4.36.84.63,1.33.86l2.79,1.29c.71.33,1.33.73,1.91,1.24,1.81,1.63,1.63,3.85.75,5.93-.39.93-.85,1.81-1.39,2.66-.14.22-.39.4-.64.43-.3.04-.51-.14-.63-.34-.15-.27-.08-.52.07-.78.28-.52.18-1.16-.15-1.65Z"/>
  </g>
</svg>