<?xml version="1.0" encoding="UTF-8"?>
<svg id="Layer_1" data-name="Layer 1" xmlns="http://www.w3.org/2000/svg" xmlns:xlink="http://www.w3.org/1999/xlink" viewBox="0 0 264.43 120.78">
  <defs>
    <style>
      .cls-1 {
        fill: none;
      }

      .cls-2 {
        fill: #de5726;
      }

      .cls-3 {
        fill: #fef5a5;
      }

      .cls-4 {
        filter: url(#drop-shadow-16);
      }

      .cls-5 {
        fill-rule: evenodd;
      }

      .cls-5, .cls-6 {
        fill: #38bcab;
      }

      .cls-7 {
        fill: #fff;
      }

      .cls-8 {
        fill: #d84027;
      }

      .cls-9 {
        clip-path: url(#clippath);
      }
    </style>
    <filter id="drop-shadow-16" x="23.2" y="48.36" width="216.77" height="65.25" filterUnits="userSpaceOnUse">
      <feOffset dx="5" dy="4"/>
      <feGaussianBlur result="blur" stdDeviation="0"/>
      <feFlood flood-color="#000" flood-opacity=".21"/>
      <feComposite in2="blur" operator="in"/>
      <feComposite in="SourceGraphic"/>
    </filter>
    <clipPath id="clippath">
      <path class="cls-1" d="M221.74,5.38l9.13,2.13-4.14,39.39s-20.45.33-18.72-5.16c1.73-5.48,13.74-36.36,13.74-36.36Z"/>
    </clipPath>
  </defs>
  <g class="cls-4">
    <path class="cls-5" d="M53.83,109.61c-16.89,0-30.62-13.74-30.62-30.62s13.74-30.62,30.62-30.62h150.52c16.89,0,30.62,13.74,30.62,30.62s-13.74,30.62-30.62,30.62H53.83Z"/>
    <rect class="cls-3" x="32.32" y="58.12" width="191.77" height="41.25" rx="20.62" ry="20.62"/>
    <g>
      <path class="cls-6" d="M94.73,87.77c-.8-.42-.83-.9-1.99-2.47-.32-.42-.68-1.6-1.19-2.12-.44-.44-.64-.74-.95-1.33.17,0-.4-.2-1.1-.2-.13,0-.15.11-.15.28,0,.68.13,1.46.13,2.21,0,.57,0,.77.08,1.36,0,.52-.23.77-1.06.77-.25-.02-.57-.09-.8-.09-.57,0-1.19.2-1.55.2h-.64c-.13,0-.23,0-.36.02-.08,0-.19-.02-.19-.11v-.02c0-.39-.06-.83-.06-1.22,0-1.05.19-1.95.19-2.95,0-.33-.06-.7-.11-1.03,0-.77,0-1.47.06-2.21,0-.04-.02-.22-.02-.26,0-.13.02-.28.04-.44,0-.28-.02-.59-.02-.9,0-.5.04-1.01.04-1.53,0-.35-.08-.7-.08-1.05,0-.09,0-.15.02-.24-.06-.31-.08-.57-.08-.9,0-.37.04-.83.19-1.14.53-.55.83-.68,1.46-.68.3,0,.64.02.95.07.4-.04.85-.07,1.23-.07h.13c.59,0,1.17-.11,1.76-.11.08,0,.17.02.25.02.3,0,.57-.07.87-.07.51.07,1.02.17,1.52.17.08,0,.17-.04.34-.04,1.31.09,1.76.31,2.82,1.29,1.08,1.12,1.19,3.08,1.19,4.18,0,.2-.04.48-.08.59-.21.85-.85,1.75-1.42,2.34-.19.18-.85.5-.85.7l.02.02c.28.48.68,1.31.93,1.92.4.72,1.21,1.84,1.63,2.93,0,.09.15.31-.91.83-.89.17-1.33.9-2.08,1.27h-.17ZM91.04,78.33h.21c.3,0,.72,0,1.21-.26.17-.04.68-.26.68-1.25-.19-1.49-1.14-1.44-1.8-1.55-1.48.15-1.82.04-1.82.94,0,.22.04.48.04.7,0,.04-.02.09-.02.13v.85c0,.46.51.39,1,.46.17,0,.36-.02.51-.02Z"/>
      <path class="cls-6" d="M105.51,85.96c-1.02,0-2.35.13-4.02-.13-1.25-.2-2.5.26-2.5-.87,0-.9-.02-1.77-.02-2.65,0-.63.08-1.4.08-2.19,0-.04-.15-.92-.15-1.25,0-2.17-.15-6.84.23-6.84.13,0,.28,0,.4.02.51.15,1.19.09,1.71.09.78,0,1.84-.24,2.8-.24.47,0,.85.02,1.29.09,0-.02.02-.02.04-.02.17,0,.34.02.53.02.4,0,.83-.13,1.44-.13.93,0,1.95,0,3.07.15.64,0,2.14-.15,2.14.28,0,.39-.06.77-.17,1.16,0,.48.06.98.06,1.4,0,.33.15,1.01-.36,1.01-.23,0-.44-.02-.68-.02-.15,0-.3.04-.44.04-.4,0-.8-.09-1.19-.09h-.27c-.93,0-1.8-.09-2.73-.09-.59,0-1.17.11-1.76.11-.08,0-.17-.02-.25-.02h-.17c-.23,0-.49-.02-.7-.04-.3,0-.28.42-.28.85.02.09.02.2.04.28,0,.04-.02.11-.02.15.15.31,1.27.28,2.44.28.38,0,.83-.04,1.19-.04.8,0,1.65-.04,2.41-.04.17,0,.4.02.59.07.17-.02.3-.09.51-.09.72,0,.8.04.8.33,0,.33-.04.79-.11,1.16,0,.57.02,1.18.02,1.77,0,.22-.53.26-.85.26-.3,0-.57-.02-.87-.02-.3-.04-1,.13-1.76-.13-.15.04-.34.04-.49.04-.68,0-1.89-.04-2.92-.17-.38.04-.74.09-1.02.13,0,.11.04.15.04.2,0,.37-.06.61-.06.94.13.26,1.06.28,1.42.28,1.12,0,1.59-.13,3.11-.13,1.12,0,1.95-.04,3.52.07.11,0,.21-.02.34-.02.32,0,.57.24.57.77,0,.02,0,.04-.02.07.06.31.17.55.17.96,0,.26-.13.87-.13,1.38,0,.2.06.37.06.55,0,.22-.13.22-.3.22-.38,0-.72-.02-1.06-.02-.7,0-1.44,0-2.12.15-1.23,0-2.31-.02-3.64-.02ZM104.34,82.44h-.15.15ZM106.52,77.52s.02-.02.04-.02h-.17s.08.02.13.02ZM112.31,82.77c0-.07-.02-.13-.02-.15,0,.07.02.11.02.15Z"/>
      <path class="cls-6" d="M116.33,87.18c-2.16,0-2.14-.55-2.14-1.62,0-.44.06-.83.11-1.29,0-.02-.02-.07-.02-.09,0,0,.02-2.19.74-2.19.06,0,.13.02.19.04.76.28,1.46.31,2.18.52.32.11.95.13,1.48.31.42,0,1-.2,1-.7,0-.17-.13-.35-.28-.48,0,0-1.23-1.03-1.97-1.03-1.23-.46-1.99-.57-2.8-1.4-.34-.35-.66-.18-1.06-1.71-.23-.37-.25-.85-.34-1.33,0-.61.17-1.18.38-1.73,0,0,.66-1.38,1-1.55.38-.66.8-.59,1.16-.96.23-.24.78-.35,1.14-.48.08-.02.95-.37,1.74-.37.11,0,.23.04.36.04-.06.02-.13.02-.15.02.66.09,1.14.15,1.71.24.34.13.81.5,1.38.63,0,0,.72.26.72,1.2-.06.42-.11.83-.15,1.29-.02.2-.06,1.77-.85,1.77-.61,0-1.08-.17-1.59-.31-.17-.04-.72-.26-.97-.26-.15,0-.3.02-.47.02-.13,0-1.06-.07-1.06.59,0,.22.36.5.49.61.45.61,1.82.83,2.63,1.31.27.17,1.12.5,1.61.96.57.55,1.63,2.01,1.63,3.7,0,.24-.08.74-.19,1.03-.23,1.47-1.25,2.34-2.61,2.69-.64,0-1.02.28-1.57.28-.49,0-1.19.17-1.74.17-.3,0-.57-.02-.87-.04-.19,0-.4.07-.59.07-.08,0-.17.02-.25.02ZM123.93,83.01s.02-.07-.02-.07c0,.02.02.04.02.07Z"/>
      <path class="cls-6" d="M128.43,86.72c-.55-.11-.66-.52-.66-1.66,0-2.67.23-4.18.23-6.28v-.42c-.38-2.3.15-2.36-2.05-2.36-.4,0-.61.13-1.17.13-.23,0-.72-.13-.72-.31v-1.79c0-.37-.11-.63-.11-1.14,0-.24-.02-.68.34-.68.3,0,.47.13.74.13.11,0,.23-.02.34-.02.25,0,.97.11,1.67.11.36,0,.91-.07,1.4-.07.38,0,.68.07,1,.07.23,0,.51-.04.68-.04.8,0,1.65.11,2.46.11.85,0,1.86,0,2.86-.15.19,0,.55-.07.55.28,0,.39-.06.87-.11,1.27,0,.17.02.39.02.55,0,1.92-.02,1.95-1.29,1.95-.23,0-.36-.07-.55-.07-.25,0-.51.09-.76.09-.28,0-.44-.09-.72-.09-.04,0-.23.15-.23.37,0,.83.02,1.66.02,2.47,0,1.88-.21,4.02-.21,5.93,0,1.38-.06,1.49-.83,1.49-.19,0-.34-.04-.49-.04-.74,0-1.44.02-2.12.15-.08.02-.19.02-.3.02Z"/>
      <path class="cls-6" d="M143.97,87.84c-.32,0-.44-.26-.44-.57-.17-.7-.3-1.38-.42-2.06-.02-.04-.28-2.21-.66-2.21-.19,0-.4.04-.59.04-.13,0-.25-.04-.38-.04-.51,0-.97.22-1.4.22-.59,0-.61,1.29-.68,1.77-.06.42-.28.85-.38,1.73-.28.57-1.19.55-1.82.55s-1.99.31-1.99-.72c0-.72.34-1.97.34-2.97.13-2.54.8-4.37,1.27-6.3.13-.55.47-1.49.53-2.16.21-1.09.66-2.38,1.04-3.52,0-.83.25-1.25,1.06-1.25h2.88c.4,0,.91.09,1.33.26.47.2.28,1.38,1.04,3.52.38.79.42,2.06.7,3.1.23.68.15,1.31.49,1.97.25.52.32,1.05.91,3.56.3,1.27.55,1.84.68,2.82.08.39.21.77.21,1.16,0,.24.02,1.03-.13,1.03-.17,0-.49.02-.63-.04-.64,0-1.31.09-1.8.09-.21,0-.44-.04-.66-.04-.15,0-.32.02-.47.04l-.02.02ZM142.15,78.35c0-.52-.19-1.03-.19-1.49-.02-.26-.15-1.86-.57-1.86-.28,0-.32.74-.38,1.12-.08.48-.7,2.16-.7,3.45,0,.35.19.24.47.33,1.42,0,1.38-.28,1.38-1.55Z"/>
      <path class="cls-6" d="M158.44,87.77c-.81-.42-.83-.9-1.99-2.47-.32-.42-.68-1.6-1.19-2.12-.44-.44-.63-.74-.95-1.33.17,0-.4-.2-1.1-.2-.13,0-.15.11-.15.28,0,.68.13,1.46.13,2.21,0,.57,0,.77.08,1.36,0,.52-.23.77-1.06.77-.25-.02-.57-.09-.8-.09-.57,0-1.19.2-1.55.2h-.63c-.13,0-.23,0-.36.02-.08,0-.19-.02-.19-.11v-.02c0-.39-.06-.83-.06-1.22,0-1.05.19-1.95.19-2.95,0-.33-.06-.7-.11-1.03,0-.77,0-1.47.06-2.21,0-.04-.02-.22-.02-.26,0-.13.02-.28.04-.44,0-.28-.02-.59-.02-.9,0-.5.04-1.01.04-1.53,0-.35-.08-.7-.08-1.05,0-.09,0-.15.02-.24-.06-.31-.08-.57-.08-.9,0-.37.04-.83.19-1.14.53-.55.83-.68,1.46-.68.3,0,.63.02.95.07.4-.04.85-.07,1.23-.07h.13c.59,0,1.16-.11,1.76-.11.08,0,.17.02.25.02.3,0,.57-.07.87-.07.51.07,1.02.17,1.53.17.08,0,.17-.04.34-.04,1.31.09,1.76.31,2.82,1.29,1.08,1.12,1.19,3.08,1.19,4.18,0,.2-.04.48-.08.59-.21.85-.85,1.75-1.42,2.34-.19.18-.85.5-.85.7l.02.02c.28.48.68,1.31.93,1.92.4.72,1.21,1.84,1.63,2.93,0,.09.15.31-.91.83-.89.17-1.33.9-2.08,1.27h-.17ZM154.75,78.33h.21c.3,0,.72,0,1.21-.26.17-.04.68-.26.68-1.25-.19-1.49-1.14-1.44-1.8-1.55-1.48.15-1.82.04-1.82.94,0,.22.04.48.04.7,0,.04-.02.09-.02.13v.85c0,.46.51.39,1,.46.17,0,.36-.02.51-.02Z"/>
      <path class="cls-6" d="M166.36,86.72c-.55-.11-.66-.52-.66-1.66,0-2.67.23-4.18.23-6.28v-.42c-.38-2.3.15-2.36-2.05-2.36-.4,0-.61.13-1.17.13-.23,0-.72-.13-.72-.31v-1.79c0-.37-.11-.63-.11-1.14,0-.24-.02-.68.34-.68.3,0,.47.13.74.13.11,0,.23-.02.34-.02.25,0,.97.11,1.67.11.36,0,.91-.07,1.4-.07.38,0,.68.07,1,.07.23,0,.51-.04.68-.04.8,0,1.65.11,2.46.11.85,0,1.86,0,2.86-.15.19,0,.55-.07.55.28,0,.39-.06.87-.11,1.27,0,.17.02.39.02.55,0,1.92-.02,1.95-1.29,1.95-.23,0-.36-.07-.55-.07-.25,0-.51.09-.76.09-.28,0-.44-.09-.72-.09-.04,0-.23.15-.23.37,0,.83.02,1.66.02,2.47,0,1.88-.21,4.02-.21,5.93,0,1.38-.06,1.49-.83,1.49-.19,0-.34-.04-.49-.04-.74,0-1.44.02-2.12.15-.08.02-.19.02-.3.02Z"/>
    </g>
  </g>
  <g>
    <polygon class="cls-2" points="198.73 39.14 214.08 37.84 225.82 42.42 236.58 52.85 229.23 56.67 212.74 53.23 197.81 47.64 198.73 39.14"/>
    <polygon class="cls-8" points="228.43 54.14 217.03 51.85 199.66 45.53 198.62 40.14 197.81 47.64 212.74 53.23 229.23 56.67 236.58 52.85 233.76 50.11 228.43 54.14"/>
    <g class="cls-9">
      <path class="cls-2" d="M221.77,5.5l9.13,2.13-4.14,39.39s-20.45.33-18.72-5.16c1.73-5.48,13.74-36.36,13.74-36.36Z"/>
      <path class="cls-8" d="M226.59,47.71l3.2-30.47-8.24,18.01-12.95,9.55c3.64,3.15,17.99,2.92,17.99,2.92Z"/>
      <path class="cls-7" d="M230.13,25.38l-.24-8.53c-1.89-.31-3.89-.73-5.94-1.25s-4-1.12-5.81-1.75l-4.3,7.37c2.39.95,5.11,1.83,8.02,2.58s5.72,1.27,8.27,1.58Z"/>
      <path class="cls-7" d="M220.53,31.49c-3.05-.78-5.84-1.74-8.16-2.77l-3.5,6c2.61,1.33,6.06,2.61,9.92,3.6,3.86.99,7.5,1.51,10.43,1.6l-.2-6.94c-2.53-.21-5.44-.71-8.49-1.48Z"/>
    </g>
  </g>
</svg>