<?xml version="1.0" encoding="UTF-8"?>
<svg id="Layer_1" data-name="Layer 1" xmlns="http://www.w3.org/2000/svg" xmlns:xlink="http://www.w3.org/1999/xlink" viewBox="0 0 134.43 152.12">
  <defs>
    <style>
      .cls-1, .cls-2, .cls-3, .cls-4 {
        fill: none;
      }

      .cls-5 {
        fill: #281e11;
      }

      .cls-6 {
        fill: url(#_ГӮГҒ_ГҸ_ГҢГҢ_ГҲ_ГӢГӮГҢГҡ_303);
      }

      .cls-7 {
        fill: #eb6430;
      }

      .cls-8 {
        fill: url(#_ГӮГҒ_ГҸ_ГҢГҢ_ГҲ_ГӢГӮГҢГҡ_303-2);
      }

      .cls-9 {
        fill: url(#_ГӮГҒ_ГҸ_ГҢГҢ_ГҲ_ГӢГӮГҢГҡ_303-3);
      }

      .cls-2 {
        stroke: #020202;
      }

      .cls-2, .cls-3, .cls-4 {
        stroke-linecap: round;
        stroke-linejoin: round;
      }

      .cls-2, .cls-4 {
        stroke-width: 1.89px;
      }

      .cls-10 {
        fill: #ee9e59;
      }

      .cls-11 {
        fill: #d9562e;
      }

      .cls-12 {
        fill: #502d14;
      }

      .cls-13 {
        fill: #f9f5e4;
      }

      .cls-3 {
        stroke: #3a3931;
        stroke-width: 2px;
      }

      .cls-14 {
        fill: #ec3a33;
      }

      .cls-15 {
        fill: #393831;
      }

      .cls-16 {
        fill: #f8dab7;
      }

      .cls-17 {
        clip-path: url(#clippath);
      }

      .cls-4 {
        stroke: #ee9e59;
      }
    </style>
    <linearGradient id="_ГӮГҒ_ГҸ_ГҢГҢ_ГҲ_ГӢГӮГҢГҡ_303" data-name="ВЎГӮГҒЛҡГҸЛҮГҢГҢЛҡГҲ вҖһпЈҝвҖЎвҖ°ГӢГӮГҢГҡ 303" x1="39.36" y1="93.65" x2="100.68" y2="93.65" gradientUnits="userSpaceOnUse">
      <stop offset="0" stop-color="#d45a31"/>
      <stop offset=".25" stop-color="#b53c29"/>
      <stop offset=".46" stop-color="#a02825"/>
      <stop offset=".49" stop-color="#9d2623"/>
      <stop offset=".81" stop-color="#811918"/>
      <stop offset="1" stop-color="#771414"/>
    </linearGradient>
    <clipPath id="clippath">
      <path class="cls-1" d="M42.48,41.16c1.16-.03,2.11.11,2.87.34,5.03,1.86,4.21,13.18,4.21,13.18,5.31-.26,8.88-10.05,8.88-10.05,13.06,1.93,23.52-9.51,23.52-9.51,4.62,6.67,13.38,8.1,18.21,8.37.03,4.43.26,10.12,1.08,14.61,1.57,8.59-3.63,17.78-21.04,19.59-17.41,1.81-31.08-2.78-33.01-15.12,0,0-7.38,4.01-12.09-5.31-4.72-9.32,1.93-16.21,7.38-16.09Z"/>
    </clipPath>
    <linearGradient id="_ГӮГҒ_ГҸ_ГҢГҢ_ГҲ_ГӢГӮГҢГҡ_303-2" data-name="ВЎГӮГҒЛҡГҸЛҮГҢГҢЛҡГҲ вҖһпЈҝвҖЎвҖ°ГӢГӮГҢГҡ 303" x1="42.38" y1="78.54" x2="61.34" y2="78.54" xlink:href="#_ГӮГҒ_ГҸ_ГҢГҢ_ГҲ_ГӢГӮГҢГҡ_303"/>
    <linearGradient id="_ГӮГҒ_ГҸ_ГҢГҢ_ГҲ_ГӢГӮГҢГҡ_303-3" data-name="ВЎГӮГҒЛҡГҸЛҮГҢГҢЛҡГҲ вҖһпЈҝвҖЎвҖ°ГӢГӮГҢГҡ 303" x1="39.27" y1="62.68" x2="43.43" y2="62.68" xlink:href="#_ГӮГҒ_ГҸ_ГҢГҢ_ГҲ_ГӢГӮГҢГҡ_303"/>
  </defs>
  <g>
    <g>
      <g>
        <path class="cls-16" d="M93.68,78.52l-1.24-.17c-3.11-.44-5.95,1.81-6.24,4.94l-1.14,12.21c-.27,2.93,1.8,5.55,4.71,5.95h0c2.89.4,5.59-1.52,6.15-4.38l2.38-12.04c.61-3.1-1.5-6.07-4.63-6.51Z"/>
        <ellipse class="cls-16" cx="88.04" cy="101.9" rx="8.2" ry="7.76" transform="translate(-43.86 74.75) rotate(-37.54)"/>
        <line class="cls-2" x1="80.89" y1="99.08" x2="84.78" y2="100.06"/>
        <path class="cls-2" d="M84.9,98.75s.52,1.65-1.07,2.95"/>
      </g>
      <path class="cls-16" d="M82.83,110.48l-3.24,13.56c1.56,1.33,3.99,3.79,4.65,6.58l-21.14-5.04,4.47-18.74,15.26,3.64Z"/>
      <path class="cls-5" d="M84.22,130.64c-.63-2.68-2.88-5.04-4.45-6.4l-15.9-1.99-.8,3.35,21.14,5.04Z"/>
      <g>
        <path class="cls-16" d="M69.3,109.83l3.83,13.41s2.31,1.36,4.49,4.26l-18.11,5.18-5.3-18.52,15.09-4.31Z"/>
        <path class="cls-5" d="M80.29,126.86c-1.86-2.03-4.98-2.98-7.02-3.4l-14.83,6.06.95,3.31,20.9-5.97Z"/>
      </g>
      <path class="cls-5" d="M78.58,24.42s12.58-6.13,23.06-1.61c10.48,4.51,23.94,60.8-13.1,75.95l-40.25.39s-6.31,9.75-20.49,4.43c-14.19-5.32-.93-19.83,2.04-24.02,0,0-10.78-44.18,12.94-55.3,23.72-11.12,35.81.16,35.81.16Z"/>
      <polygon class="cls-6" points="51.58 75.52 39.36 114.23 100.68 114.23 90.15 74.75 52.4 73.07 51.58 75.52"/>
      <g>
        <path class="cls-16" d="M46.55,73.19l.94-.83c2.36-2.07,5.97-1.76,7.93.69l7.66,9.58c1.84,2.29,1.54,5.63-.67,7.57h0c-2.19,1.92-5.5,1.8-7.55-.28l-8.6-8.75c-2.21-2.25-2.08-5.9.29-7.98Z"/>
        <ellipse class="cls-16" cx="64.5" cy="90.47" rx="7.76" ry="8.2" transform="translate(-30.45 148.17) rotate(-85.8)"/>
        <line class="cls-2" x1="69.29" y1="84.72" x2="66.57" y2="87.68"/>
        <path class="cls-2" d="M65.76,86.65s.47,1.66,2.52,1.88"/>
      </g>
      <path class="cls-12" d="M53.54,71.1s-.5-5.08-3.49-4.84"/>
      <path class="cls-14" d="M83.01,63.83c1.23-.17,2.34.9,2.7,1.93.38,1.09.11,2.67-1.08,3.22-.91.42-1.95.07-2.56-.39-1.07-.79-1.33-2.26-.81-3.35.08-.17.63-1.26,1.75-1.42Z"/>
      <g class="cls-17">
        <path class="cls-16" d="M42.66,41.24c1.16-.03,2.11.11,2.87.34,5.03,1.86,4.21,13.18,4.21,13.18,5.31-.26,8.88-10.05,8.88-10.05,13.06,1.93,23.52-9.51,23.52-9.51,4.62,6.67,13.38,8.1,18.21,8.37.03,4.43.26,10.12,1.08,14.61,1.57,8.59-3.63,17.78-21.04,19.59-17.41,1.81-31.08-2.78-33.01-15.12,0,0-7.38,4.01-12.09-5.31-4.72-9.32,1.93-16.21,7.38-16.09Z"/>
        <path class="cls-4" d="M37.58,50.91s.08-4.59,4.43-4.27c4.35.32,5.4,6.21,5.4,6.21"/>
        <path class="cls-3" d="M79.18,47.16s-3.2-1.09-6.41.6"/>
        <path class="cls-3" d="M95.46,47.29s-2.62-1.65-6.37.08"/>
        <circle class="cls-10" cx="64.93" cy="62.85" r="8.24"/>
        <circle class="cls-10" cx="101.21" cy="63.63" r="8.24"/>
        <path class="cls-13" d="M88.17,56.66c-.55-2.35.39-4.69,1.97-6.59-4.14,1.91-6.64,5.34-5.79,8.33.76,2.66,3.96,4.22,7.84,4.14-2.15-1.19-3.64-3.37-4.02-5.88Z"/>
        <path class="cls-15" d="M104.19,52.76c-1-3.52-6.25-5.11-11.73-3.55-.82.23-1.59.52-2.32.86-1.58,1.9-2.52,4.24-1.97,6.59.37,2.51,1.87,4.69,4.02,5.88,1.25-.02,2.56-.21,3.89-.59,5.48-1.56,9.11-5.67,8.11-9.19Z"/>
        <path class="cls-13" d="M64.13,54.25c.48-2.37,2.31-4.1,4.54-5.16-4.56,0-8.27,2.07-8.75,5.14-.43,2.74,1.83,5.49,5.39,7.04-1.45-1.98-1.9-4.58-1.19-7.02Z"/>
        <path class="cls-15" d="M80.31,57.41c.56-3.61-3.54-7.25-9.17-8.13-.84-.13-1.67-.19-2.47-.19-2.23,1.06-4.06,2.8-4.54,5.16-.71,2.44-.27,5.04,1.19,7.02,1.14.5,2.42.88,3.78,1.09,5.63.88,10.65-1.34,11.21-4.95Z"/>
      </g>
    </g>
    <g>
      <path class="cls-7" d="M75.78,65.04c1.05-.36,1.66-.19,3.28-.14.61.02,1.68-.01,3.82-.07,1.3-.04,1.75-.01,2.42.2.77.25,1.5.81,1.7,1.6.11.42.06.87-.06,1.29-.12.42-.31.82-.56,1.18-.4.57-.94,1.02-1.51,1.42-1.82,1.26-4.09,1.99-6.26,1.58-2.34-.44-4.2-2.51-4.49-4.31-.05-.34-.18-1.15.28-1.84.13-.19.45-.6,1.36-.92Z"/>
      <path class="cls-11" d="M76.41,71.19c.64.45,1.37.8,2.16.94,1.77.33,3.61-.1,5.21-.95-1.97-2.08-4.91-1.44-7.37,0Z"/>
    </g>
    <circle class="cls-8" cx="51.86" cy="78.54" r="9.48"/>
  </g>
  <circle class="cls-9" cx="41.35" cy="62.68" r="2.08"/>
</svg>